<?xml version="1.0" encoding="utf-8"?>
<!-- Generator: Adobe Illustrator 27.0.0, SVG Export Plug-In . SVG Version: 6.00 Build 0)  -->
<svg version="1.1" id="Publicdomainvectors.org" xmlns="http://www.w3.org/2000/svg" xmlns:xlink="http://www.w3.org/1999/xlink"
	 x="0px" y="0px" viewBox="0 0 600 600" style="enable-background:new 0 0 600 600;" xml:space="preserve">
<style type="text/css">
	.st0{fill:#3BBFBA;}
	.st1{fill:#00ADE9;}
	.st2{fill:#008EB0;}
	.st3{fill:#FFFFFF;}
	.st4{font-family:'Broadway';}
	.st5{font-size:117.947px;}
</style>
<g>
	<g>
		<path class="st0" d="M77.77,421.81c-18.49-10.24-5.63-41.86,9.4-75.85c17.5-39.28,38.32-74.84,58.79-102.88
			c33.18-44.77,63.4-60.01,80.44-49.34c-8,7.29-17.6,25.93-24.92,49.34c-8.22,26.07-11.82,52.93-16.03,72.69
			c-13.79,16.78-34.05,28.15-56.67,43.52C104.76,375.68,63.32,404.85,77.77,421.81c-18.49-10.24-5.63-41.86,9.4-75.85
			c17.5-39.28,38.32-74.84,58.79-102.88c33.18-44.77,63.4-60.01,80.44-49.34c-8,7.29-17.6,25.93-24.92,49.34
			c-8.22,26.07-11.82,52.93-16.03,72.69c-13.79,16.78-34.05,28.15-56.67,43.52C104.76,375.68,63.32,404.85,77.77,421.81z"/>
		<path class="st1" d="M58.92,411.85c-7.91-29.95,11.15-73.31,32.21-116.29c22.04-44.78,46.25-78.1,68.75-98.73
			c33.5-30.72,61.75-28.39,73.14-6.37c-6.19,0.35-15.17,11.4-23.16,29.87c-9.26,21.31-16.32,49.77-20.62,74.74
			c-14.42,14.26-34.09,22.83-58.08,35.96C104.18,345.86,58.98,373.86,58.92,411.85c-7.91-29.95,11.15-73.31,32.21-116.29
			c22.04-44.78,46.25-78.1,68.75-98.73c33.5-30.72,61.75-28.39,73.14-6.37c-6.19,0.35-15.17,11.4-23.16,29.87
			c-9.26,21.31-16.32,49.77-20.62,74.74c-14.42,14.26-34.09,22.83-58.08,35.96C104.18,345.86,58.98,373.86,58.92,411.85z"/>
		<path class="st2" d="M48.08,390.44c2.22-47.38,24.94-100.83,51.67-146.13c25.39-43.03,51.85-68.74,74.27-80.68
			c31.99-16.69,56.58-0.37,63.04,28.61c-4.19-4.48-12,0.13-19.84,13.41c-9.21,15.57-17.92,41.36-23.65,67.37
			c-15,9.6-33.99,13.45-58.1,23.8C107.28,308.74,60.45,334,48.08,390.44c2.22-47.38,24.94-100.83,51.67-146.13
			c25.39-43.03,51.85-68.74,74.27-80.68c31.99-16.69,56.58-0.37,63.04,28.61c-4.19-4.48-12,0.13-19.84,13.41
			c-9.21,15.57-17.92,41.36-23.65,67.37c-15,9.6-33.99,13.45-58.1,23.8C107.28,308.74,60.45,334,48.08,390.44z"/>
	</g>
	<path class="st3" d="M195.74,172.96c2.53,0.14,4.46,2.29,4.32,4.82c-0.13,2.53-2.29,4.47-4.82,4.33c-2.53-0.13-4.47-2.29-4.32-4.82
		C191.05,174.76,193.21,172.82,195.74,172.96z"/>
</g>
<text transform="matrix(1 0 0 1 217.9877 356.2188)" class="st3 st4 st5">FCRC</text>
</svg>
